<svg>

  <symbol id="icon-flag-russia" viewBox="0 0 21 14" fill="none" xmlns="http://www.w3.org/2000/svg">
    <path d="M0 0V1.53693V3.07386V4.61079H21V3.07386V1.53693V0H0Z" fill="#F0F0F0"/>
    <path d="M21 4.61078H0V9.22157H21V4.61078Z" fill="#0052B4"/>
    <path d="M21 0H0V4.61079H21V0Z" fill="#EDEDED"/>
    <path d="M21 9.22159H0V13.8324H21V9.22159Z" fill="#D80027"/>
  </symbol>

  <symbol id="icon-flag-united-kingdom" x="0px" y="0px" width="21" height="14" viewBox="0 100 500 300" fill="none" xmlns="http://www.w3.org/2000/svg">
      <path style="fill:#41479B;" d="M503.172,423.725H8.828c-4.875,0-8.828-3.953-8.828-8.828V97.104c0-4.875,3.953-8.828,8.828-8.828
          h494.345c4.875,0,8.828,3.953,8.828,8.828v317.793C512,419.772,508.047,423.725,503.172,423.725z"/>
      <path style="fill:#F5F5F5;" d="M512,97.104c0-4.875-3.953-8.828-8.828-8.828h-39.495l-163.54,107.147V88.276h-88.276v107.147
          L48.322,88.276H8.828C3.953,88.276,0,92.229,0,97.104v22.831l140.309,91.927H0v88.276h140.309L0,392.066v22.831
          c0,4.875,3.953,8.828,8.828,8.828h39.495l163.54-107.147v107.147h88.276V316.578l163.54,107.147h39.495
          c4.875,0,8.828-3.953,8.828-8.828v-22.831l-140.309-91.927H512v-88.276H371.691L512,119.935V97.104z"/>
      <g>
          <polygon style="fill:#FF4B55;" points="512,229.518 282.483,229.518 282.483,88.276 229.517,88.276 229.517,229.518 0,229.518
              0,282.483 229.517,282.483 229.517,423.725 282.483,423.725 282.483,282.483 512,282.483   "/>
          <path style="fill:#FF4B55;" d="M178.948,300.138L0.25,416.135c0.625,4.263,4.14,7.59,8.577,7.59h12.159l190.39-123.586h-32.428
              V300.138z"/>
          <path style="fill:#FF4B55;" d="M346.388,300.138H313.96l190.113,123.404c4.431-0.472,7.928-4.09,7.928-8.646v-7.258
              L346.388,300.138z"/>
          <path style="fill:#FF4B55;" d="M0,106.849l161.779,105.014h32.428L5.143,89.137C2.123,90.54,0,93.555,0,97.104V106.849z"/>
          <path style="fill:#FF4B55;" d="M332.566,211.863L511.693,95.586c-0.744-4.122-4.184-7.309-8.521-7.309h-12.647L300.138,211.863
              H332.566z"/>
      </g>
  </symbol>

  <symbol id="icon-yandex" width="61" height="26" viewBox="0 0 61 26" fill="none" xmlns="http://www.w3.org/2000/svg">
    <path d="M9.90627 0.882324H6.6601C3.47122 0.882324 0.759716 3.3074 0.759716 8.02389C0.759716 10.85 2.07728 12.9504 4.40688 13.9816L0.053198 21.8678C-0.0804677 22.1161 0.0531975 22.3261 0.282339 22.3261H2.30642C2.47827 22.3261 2.59285 22.2688 2.65013 22.1352L6.62191 14.3826H8.05405V22.1352C8.05405 22.2116 8.13043 22.3261 8.245 22.3261H10.0208C10.1927 22.3261 10.25 22.2497 10.25 22.097V1.16875C10.2309 0.9778 10.1163 0.882324 9.90627 0.882324ZM8.03495 12.5494H6.83196C4.94155 12.5494 3.12751 11.1746 3.12751 7.73747C3.12751 4.16668 4.84607 2.69636 6.58372 2.69636H8.03495V12.5494Z" fill="white"/>
    <path d="M20.6377 8.00488H18.8619C18.7282 8.00488 18.6328 8.11945 18.6328 8.19583V13.657H15.3484V8.19583C15.3484 8.06217 15.2911 8.00488 15.1575 8.00488H13.3816C13.2479 8.00488 13.1525 8.08126 13.1525 8.19583V22.0971C13.1525 22.2307 13.2098 22.3262 13.3434 22.3262H15.1384C15.2529 22.3262 15.3293 22.2498 15.3293 22.0971V15.4711H18.6137V22.0971C18.6137 22.2307 18.69 22.3262 18.8428 22.3262H20.6186C20.7523 22.3262 20.8096 22.2116 20.8096 22.0971V8.19583C20.8287 8.08126 20.7332 8.00488 20.6377 8.00488Z" fill="white"/>
    <path d="M60.9857 21.4095L60.7565 20.4356C60.7374 20.3592 60.6992 20.321 60.6229 20.321C60.4892 20.321 59.7063 20.6266 58.5988 20.6266C56.441 20.6266 55.3717 18.5452 55.3717 15.2227C55.3717 12.3011 56.2501 9.41774 57.7395 9.41774C58.1405 9.41774 58.6179 9.53232 59.4008 10.2388C59.4772 10.3152 59.5344 10.3534 59.6299 10.3534C59.7063 10.3534 59.8018 10.2961 59.8782 10.1434L60.642 8.88308C60.6992 8.78761 60.7183 8.71123 60.7183 8.61575C60.7183 8.50118 60.6038 8.4248 60.4319 8.32932C59.2671 7.73738 58.4651 7.6228 57.7777 7.6228C55.1044 7.6228 53.023 10.8308 53.023 15.8337C53.023 20.1492 55.028 22.6316 57.8732 22.6316C59.0762 22.6316 60.3555 22.0587 60.8711 21.6959C60.9857 21.6386 61.0239 21.524 60.9857 21.4095Z" fill="white"/>
    <path d="M48.5929 14.4588L52.011 8.19564C52.0683 8.11926 52.0301 8.00469 51.9346 8.00469H50.2542C49.7768 8.00469 49.605 8.17655 49.4331 8.53936L46.8744 13.886C46.7407 14.1915 46.588 14.4016 46.4543 14.4779V8.17655C46.4543 8.06198 46.397 7.9856 46.2824 7.9856H44.4302C44.3538 7.9856 44.2584 8.06198 44.2584 8.17655V22.0969C44.2584 22.1733 44.3156 22.2878 44.4302 22.2878H46.2824C46.397 22.2878 46.4543 22.2115 46.4543 22.0969V14.9171C46.5307 14.9744 46.588 15.0508 46.6452 15.1654L49.8914 21.8486C50.0633 22.1924 50.3115 22.2687 50.6934 22.2687H52.5265C52.6411 22.2687 52.6602 22.1542 52.6029 22.0778L48.5929 14.4588Z" fill="white"/>
    <path d="M32.2666 20.5313H31.9229C31.5028 20.5313 31.3882 20.3594 31.3882 20.0157V8.19583C31.3882 8.06217 31.3309 8.00488 31.2163 8.00488H25.5069C25.3732 8.00488 25.2778 8.08126 25.2778 8.19583V9.22697C25.2778 12.6832 25.0868 17.1514 23.2537 20.5313H22.6235C22.4517 20.5313 22.3944 20.6268 22.3944 20.7604C22.3944 20.7604 22.3944 24.1975 22.3944 24.9422C22.3944 25.095 22.509 25.1332 22.5854 25.1332H23.9602C24.2657 25.1332 24.3803 24.9041 24.3803 24.7131V22.3453H30.4907V24.9231C30.4907 25.0377 30.5671 25.1141 30.6817 25.1141H32.1329C32.3048 25.1141 32.4766 24.9804 32.4766 24.694V20.7413C32.4957 20.6077 32.4002 20.5313 32.2666 20.5313ZM29.1732 20.5313H25.0486C26.4999 18.0489 27.0727 15.2419 27.2637 11.8048C27.3209 11.0601 27.34 10.2963 27.34 9.79982H29.1732V20.5313Z" fill="white"/>
    <path d="M38.0715 7.66113C34.9972 7.66113 33.6223 11.5565 33.6223 15.7766C33.6223 20.092 35.57 22.6699 38.4152 22.6699C39.8092 22.6699 41.0312 22.1352 41.6614 21.7342C41.776 21.6769 41.7951 21.6006 41.776 21.486L41.5468 20.5121C41.5277 20.3976 41.4704 20.3403 41.3177 20.3403C41.2031 20.3403 40.382 20.6458 39.2172 20.6458C37.0213 20.6458 35.9901 18.7363 35.9901 16.2157C35.9901 15.872 35.9901 15.5474 35.9901 15.5474C35.9901 15.5474 37.0977 15.6811 37.766 15.6811H41.9287V14.4781C41.9287 10.0289 40.3629 7.66113 38.0715 7.66113ZM37.766 13.867C37.1168 13.867 36.0856 13.9816 36.0856 13.9816C36.0856 13.9816 36.0856 13.5615 36.1429 13.1032C36.3911 10.6782 37.0022 9.43698 37.9951 9.43698C38.9117 9.43698 39.4845 10.6973 39.6182 12.8932C39.6373 13.3515 39.6373 13.867 39.6373 13.867H37.766Z" fill="white"/>
  </symbol>

  <symbol id="icon-vk" width="25" height="24" viewBox="0 0 25 24" fill="none" xmlns="http://www.w3.org/2000/svg">
    <path fill-rule="evenodd" clip-rule="evenodd" d="M16.3373 0H8.66267C1.65843 0 0 1.5921 0 8.31616V15.6838C0 22.4079 1.65843 24 8.66267 24H16.3373C23.3416 24 25 22.4079 25 15.6838V8.31616C25 1.5921 23.3239 0 16.3373 0ZM20.1835 17.1235H18.3663C17.6782 17.1235 17.4665 16.5984 16.2315 15.3959C15.1553 14.3966 14.6789 14.2611 14.4143 14.2611C14.0438 14.2611 13.9379 14.3627 13.9379 14.8539V16.4291C13.9379 16.8525 13.7968 17.1066 12.6323 17.1066C10.7092 17.1066 8.57445 15.9887 7.07481 13.9054C4.81651 10.8567 4.19901 8.57022 4.19901 8.09598C4.19901 7.84192 4.30487 7.6048 4.81651 7.6048H6.63373C7.09245 7.6048 7.26888 7.80804 7.44531 8.28229C8.34509 10.7721 9.84474 12.9569 10.4622 12.9569C10.6916 12.9569 10.7975 12.8553 10.7975 12.2964V9.72195C10.7269 8.53634 10.0741 8.43472 10.0741 8.01129C10.0741 7.80804 10.2505 7.6048 10.5328 7.6048H13.391C13.7791 7.6048 13.9203 7.80804 13.9203 8.24841V11.7205C13.9203 12.0932 14.0967 12.2287 14.2025 12.2287C14.4319 12.2287 14.626 12.0932 15.0494 11.6867C16.355 10.2809 17.29 8.11291 17.29 8.11291C17.4135 7.85886 17.6253 7.62174 18.084 7.62174H19.9012C20.4481 7.62174 20.5716 7.89273 20.4481 8.26535C20.2188 9.28158 17.9958 12.2964 17.9958 12.2964C17.8017 12.6013 17.7311 12.7368 17.9958 13.0755C18.1898 13.3296 18.825 13.8546 19.2484 14.3289C20.0247 15.1757 20.6246 15.8871 20.7833 16.3783C20.9598 16.8694 20.6951 17.1235 20.1835 17.1235Z" fill="white"/>
  </symbol>

  <symbol id="icon-instagram" width="24" height="24" viewBox="0 0 24 24" fill="none" xmlns="http://www.w3.org/2000/svg">
    <path fill-rule="evenodd" clip-rule="evenodd" d="M17.0701 0H6.92994C3.10828 0 0 3.10828 0 6.92994V17.0701C0 20.8917 3.10828 24 6.92994 24H17.0701C20.8917 24 24 20.8917 24 17.0701V6.92994C24 3.0913 20.8917 0 17.0701 0ZM21.7919 17.2399C21.7919 19.7707 19.7367 21.8429 17.189 21.8429H6.81104C4.28026 21.8429 2.20807 19.7877 2.20807 17.2399V6.86199C2.20807 4.33121 4.26327 2.25902 6.81104 2.25902H17.189C19.7197 2.25902 21.7919 4.31422 21.7919 6.86199V17.2399ZM12.0085 5.82591C8.57752 5.82591 5.79196 8.61148 5.79196 12.0425C5.79196 15.4735 8.57752 18.259 12.0085 18.259C15.4395 18.259 18.2251 15.4735 18.2251 12.0425C18.2251 8.61148 15.4395 5.82591 12.0085 5.82591ZM12.0085 16.0849C9.78347 16.0849 7.96606 14.2845 7.96606 12.0425C7.96606 9.81742 9.76648 8.00001 12.0085 8.00001C14.2336 8.00001 16.051 9.80044 16.051 12.0425C16.034 14.2675 14.2336 16.0849 12.0085 16.0849ZM19.8726 5.58795C19.8726 6.3853 19.2263 7.03168 18.4289 7.03168C17.6316 7.03168 16.9852 6.3853 16.9852 5.58795C16.9852 4.79059 17.6316 4.14421 18.4289 4.14421C19.2263 4.14421 19.8726 4.79059 19.8726 5.58795Z" fill="white"/>
  </symbol>

  <symbol id="icon-question" version="1.0" xmlns="http://www.w3.org/2000/svg" viewBox="0 0 1280.000000 1280.000000" preserveAspectRatio="xMidYMid meet">
    <g transform="translate(0.000000,1280.000000) scale(0.100000,-0.100000)"
    fill="#000000" stroke="none">
    <path d="M4750 10598 c0 -378 4 -649 10 -688 11 -67 64 -192 104 -245 33 -43
    120 -84 212 -100 46 -8 198 -16 359 -20 660 -14 1169 -83 1495 -200 105 -38
    241 -107 314 -159 212 -151 300 -377 252 -648 -19 -103 -54 -177 -118 -244
    -138 -146 -349 -247 -898 -429 -170 -56 -364 -137 -392 -162 -47 -42 -80 -146
    -97 -305 -7 -59 -11 -360 -11 -758 l0 -660 167 2 168 3 32 260 c36 296 46 351
    79 417 49 96 86 120 569 361 371 185 479 251 639 392 205 180 347 489 401 875
    22 158 30 485 16 640 -53 573 -236 1006 -563 1330 -151 149 -296 252 -479 339
    -164 79 -325 124 -598 171 -105 18 -578 69 -776 85 -218 17 -392 48 -455 80
    -37 19 -108 108 -115 143 -3 15 -11 52 -18 82 l-13 55 -142 3 -142 3 0 -623z"/>
    <path d="M5998 5330 c-144 -25 -301 -106 -422 -219 -56 -52 -152 -185 -192
    -263 -62 -123 -79 -203 -79 -373 0 -127 4 -162 23 -230 78 -270 319 -508 587
    -581 92 -25 304 -30 406 -10 287 57 547 302 631 591 20 69 23 102 22 235 -1
    138 -3 164 -27 243 -96 314 -332 540 -629 601 -81 17 -238 19 -320 6z"/>
    </g>
  </symbol>

</svg>
